<svg width="2845" height="788" viewBox="0 0 2845 788" fill="none" xmlns="http://www.w3.org/2000/svg">
<g clip-path="url(#clip0_639_6002)">
<path d="M1553 268.001C1553 295.615 1530.61 318.001 1503 318.001H50C22.3857 318.001 -2.41411e-06 295.615 0 268.001L6.2668e-07 260.833C2.80671e-06 235.896 18.374 214.771 43.0701 211.315L1496.07 7.96818C1526.15 3.75893 1553 27.1155 1553 57.4856V268.001Z" fill="#FFB1FC" fill-opacity="0.1"/>
<path d="M2845 699C2845 726.614 2822.61 749 2795 749H1013.62C959.384 749 943.954 674.747 993.702 653.139L1392 480.139C1398.29 477.409 1405.07 476 1411.92 476H2795C2822.61 476 2845 498.386 2845 526V699Z" fill="#79FFD7" fill-opacity="0.1"/>
<path d="M826.5 788L2364.5 788C2390.73 788 2412 766.734 2412 740.5C2412 714.266 2390.73 693 2364.5 693L826.5 693C800.266 693 779 714.266 779 740.5C779 766.734 800.266 788 826.5 788Z" fill="#80FF00" fill-opacity="0.1"/>
</g>
<defs>
<clipPath id="clip0_639_6002">
<rect width="2845" height="788" fill="white"/>
</clipPath>
</defs>
</svg>
