<svg width="2364" height="2602" viewBox="0 0 2364 2602" fill="none" xmlns="http://www.w3.org/2000/svg">
<g clip-path="url(#clip0_639_5994)">
<path d="M2316.5 302H778.5C752.266 302 731 323.266 731 349.5C731 375.734 752.266 397 778.5 397H2316.5C2342.73 397 2364 375.734 2364 349.5C2364 323.266 2342.73 302 2316.5 302Z" fill="#4F99DE" fill-opacity="0.1"/>
<path d="M2188 1166H1747C1719.39 1166 1697 1188.39 1697 1216V1336C1697 1363.61 1719.39 1386 1747 1386H2188C2215.61 1386 2238 1363.61 2238 1336V1216C2238 1188.39 2215.61 1166 2188 1166Z" fill="#2978C1" fill-opacity="0.1"/>
<path d="M2082 909H549C521.386 909 499 931.386 499 959V1269C499 1296.61 521.386 1319 549 1319H2082C2109.61 1319 2132 1296.61 2132 1269V959C2132 931.386 2109.61 909 2082 909Z" fill="#2783D6" fill-opacity="0.1"/>
<path d="M1850 2092H779C751.386 2092 729 2114.39 729 2142V2552C729 2579.61 751.386 2602 779 2602H1850C1877.61 2602 1900 2579.61 1900 2552V2142C1900 2114.39 1877.61 2092 1850 2092Z" fill="#5AA8EF" fill-opacity="0.1"/>
<path d="M1583 0H50C22.3858 0 0 22.3858 0 50V125C0 152.614 22.3858 175 50 175H1583C1610.61 175 1633 152.614 1633 125V50C1633 22.3858 1610.61 0 1583 0Z" fill="#339DFF" fill-opacity="0.1"/>
<path d="M864 1556H467C439.386 1556 417 1578.39 417 1606V1902C417 1929.61 439.386 1952 467 1952H864C891.614 1952 914 1929.61 914 1902V1606C914 1578.39 891.614 1556 864 1556Z" fill="#5AA8EF" fill-opacity="0.1"/>
<path d="M714 1601H93C65.3858 1601 43 1623.39 43 1651V1934C43 1961.61 65.3858 1984 93 1984H714C741.614 1984 764 1961.61 764 1934V1651C764 1623.39 741.614 1601 714 1601Z" fill="#5AA8EF" fill-opacity="0.1"/>
</g>
<defs>
<clipPath id="clip0_639_5994">
<rect width="2364" height="2602" fill="white"/>
</clipPath>
</defs>
</svg>
