<svg width="19" height="19" viewBox="0 0 19 19" fill="none" xmlns="http://www.w3.org/2000/svg">
<path d="M5.35701 5.33126C5.53444 5.16717 5.81011 5.17926 5.97275 5.35827L9.31373 9.03556L12.6547 5.35827C12.8173 5.17926 13.093 5.16717 13.2704 5.33126C13.4479 5.49536 13.4599 5.7735 13.2972 5.95251L9.90493 9.68628L13.2972 13.42C13.4598 13.5991 13.4479 13.8772 13.2704 14.0413C13.093 14.2054 12.8173 14.1933 12.6547 14.0143L9.31373 10.337L5.97276 14.0143C5.81012 14.1933 5.53444 14.2054 5.35702 14.0413C5.17959 13.8772 5.16761 13.5991 5.33025 13.42L8.72253 9.68628L5.33024 5.95251C5.1676 5.7735 5.17958 5.49536 5.35701 5.33126Z" fill="#555A5E"/>
</svg>
