<svg width="1007" height="24" viewBox="0 0 1007 24" fill="none" xmlns="http://www.w3.org/2000/svg">
<path d="M21.5378 14.1175C20.1995 20.159 14.3548 24.0464 8.48326 22.8003C2.61171 21.554 -1.06323 15.6461 0.275046 9.6045C1.61333 3.56294 7.45805 -0.324425 13.3296 0.921809C19.2012 2.16804 22.8761 8.07597 21.5378 14.1175Z" fill="url(#paint0_linear_568_3649)"/>
<path d="M184.633 12.9357C184.451 19.1041 179.425 24.0576 173.406 23.9995C167.386 23.9414 162.654 18.8938 162.835 12.7253C163.015 6.55682 168.042 1.60334 174.062 1.66143C180.081 1.71952 184.814 6.76717 184.633 12.9357Z" fill="url(#paint1_linear_568_3649)"/>
<path d="M35.3984 11.4964C35.3286 13.869 33.3953 15.7741 31.0802 15.7518C28.765 15.7294 26.9447 13.7881 27.0145 11.4155C27.0841 9.04302 29.0174 7.13788 31.3326 7.16022C33.6477 7.18256 35.468 9.12392 35.3984 11.4964Z" fill="url(#paint2_linear_568_3649)"/>
<path d="M50.4894 11.642C50.4198 14.0146 48.4865 15.9197 46.1713 15.8974C43.8562 15.8751 42.0358 13.9337 42.1055 11.5611C42.1752 9.18865 44.1084 7.28349 46.4236 7.30584C48.7388 7.32818 50.5591 9.26955 50.4894 11.642Z" fill="url(#paint3_linear_568_3649)"/>
<path d="M65.5805 11.7877C65.5108 14.1601 63.5775 16.0654 61.2623 16.043C58.9472 16.0207 57.1269 14.0792 57.1965 11.7068C57.2662 9.33429 59.1996 7.42909 61.5147 7.45143C63.8298 7.47377 65.6501 9.41519 65.5805 11.7877Z" fill="url(#paint4_linear_568_3649)"/>
<path d="M80.6715 11.9333C80.6018 14.3058 78.6685 16.2109 76.3534 16.1886C74.0382 16.1662 72.2179 14.2249 72.2876 11.8524C72.3573 9.47992 74.2906 7.57473 76.6058 7.59706C78.9209 7.61941 80.7412 9.56082 80.6715 11.9333Z" fill="url(#paint5_linear_568_3649)"/>
<path d="M95.7626 12.0789C95.693 14.4514 93.76 16.3566 91.4444 16.3342C89.1292 16.3119 87.3089 14.3705 87.3787 11.998C87.4483 9.62556 89.3816 7.72034 91.6968 7.74268C94.0123 7.76502 95.8322 9.70646 95.7626 12.0789Z" fill="url(#paint6_linear_568_3649)"/>
<path d="M110.854 12.2246C110.784 14.597 108.85 16.5022 106.535 16.4799C104.22 16.4575 102.4 14.5161 102.47 12.1437C102.539 9.77119 104.472 7.86595 106.787 7.8883C109.103 7.91063 110.923 9.852 110.854 12.2246Z" fill="url(#paint7_linear_568_3649)"/>
<path d="M125.945 12.3702C125.875 14.7427 123.942 16.6478 121.626 16.6255C119.311 16.6032 117.491 14.6618 117.561 12.2893C117.63 9.91674 119.564 8.01159 121.879 8.03393C124.194 8.05627 126.015 9.99764 125.945 12.3702Z" fill="url(#paint8_linear_568_3649)"/>
<path d="M141.035 12.5157C140.966 14.8883 139.033 16.7935 136.718 16.7711C134.402 16.7488 132.583 14.8073 132.652 12.4348C132.722 10.0624 134.655 8.1572 136.97 8.17954C139.285 8.20189 141.106 10.1433 141.035 12.5157Z" fill="url(#paint9_linear_568_3649)"/>
<path d="M156.127 12.6614C156.057 15.0339 154.124 16.9391 151.809 16.9168C149.494 16.8943 147.673 14.953 147.742 12.5805C147.813 10.208 149.746 8.30284 152.061 8.32518C154.376 8.34752 156.196 10.2889 156.127 12.6614Z" fill="url(#paint10_linear_568_3649)"/>
<path d="M842.526 11.6069C842.345 17.7754 837.317 22.7288 831.298 22.6707C825.279 22.6127 820.546 17.565 820.727 11.3966C820.908 5.22808 825.934 0.274609 831.954 0.332694C837.974 0.390778 842.706 5.43842 842.526 11.6069Z" fill="url(#paint11_linear_568_3649)"/>
<path d="M693.291 10.1677C693.222 12.5402 691.288 14.4453 688.973 14.423C686.657 14.4006 684.838 12.4593 684.907 10.0868C684.977 7.71428 686.91 5.80911 689.225 5.83145C691.54 5.85379 693.361 7.79517 693.291 10.1677Z" fill="url(#paint12_linear_568_3649)"/>
<path d="M708.383 10.3133C708.312 12.6858 706.379 14.591 704.064 14.5686C701.749 14.5463 699.929 12.6049 699.998 10.2324C700.068 7.85991 702.001 5.95474 704.316 5.97708C706.631 5.99942 708.452 7.9408 708.383 10.3133Z" fill="url(#paint13_linear_568_3649)"/>
<path d="M723.473 10.459C723.403 12.8314 721.47 14.7366 719.155 14.7143C716.84 14.6919 715.019 12.7505 715.089 10.378C715.159 8.00551 717.092 6.10035 719.407 6.12269C721.722 6.14503 723.542 8.08644 723.473 10.459Z" fill="url(#paint14_linear_568_3649)"/>
<path d="M738.564 10.6045C738.494 12.9771 736.561 14.8822 734.246 14.8599C731.931 14.8376 730.11 12.8962 730.18 10.5236C730.249 8.15115 732.183 6.24598 734.499 6.26832C736.814 6.29066 738.634 8.23205 738.564 10.6045Z" fill="url(#paint15_linear_568_3649)"/>
<path d="M753.655 10.7501C753.586 13.1226 751.653 15.0279 749.337 15.0055C747.022 14.9832 745.202 13.0417 745.271 10.6692C745.341 8.29677 747.275 6.39158 749.59 6.41392C751.905 6.43626 753.725 8.37766 753.655 10.7501Z" fill="url(#paint16_linear_568_3649)"/>
<path d="M768.746 10.8958C768.677 13.2683 766.743 15.1735 764.428 15.1511C762.113 15.1287 760.293 13.1874 760.362 10.8149C760.432 8.44238 762.365 6.53721 764.68 6.55956C766.995 6.58189 768.816 8.52328 768.746 10.8958Z" fill="url(#paint17_linear_568_3649)"/>
<path d="M783.838 11.0414C783.768 13.4139 781.834 15.319 779.519 15.2967C777.204 15.2744 775.384 13.333 775.454 10.9605C775.523 8.58801 777.456 6.68282 779.771 6.70516C782.086 6.7275 783.907 8.66891 783.838 11.0414Z" fill="url(#paint18_linear_568_3649)"/>
<path d="M798.928 11.1871C798.858 13.5595 796.925 15.4647 794.61 15.4423C792.295 15.42 790.475 13.4786 790.545 11.1062C790.614 8.73363 792.547 6.82845 794.863 6.85079C797.178 6.87313 798.998 8.81452 798.928 11.1871Z" fill="url(#paint19_linear_568_3649)"/>
<path d="M814.019 11.3327C813.95 13.7052 812.017 15.6103 809.701 15.588C807.386 15.5656 805.565 13.6243 805.636 11.2518C805.706 8.87925 807.639 6.97408 809.954 6.99643C812.269 7.01876 814.089 8.96012 814.019 11.3327Z" fill="url(#paint20_linear_568_3649)"/>
<path d="M513.579 12.2713C513.398 18.4398 508.372 23.3933 502.352 23.3351C496.333 23.277 491.6 18.2295 491.78 12.061C491.962 5.89247 496.989 0.938997 503.008 0.997078C509.027 1.05516 513.761 6.1028 513.579 12.2713Z" fill="url(#paint21_linear_568_3649)"/>
<path d="M364.345 10.832C364.275 13.2045 362.342 15.1098 360.027 15.0874C357.712 15.065 355.891 13.1237 355.96 10.7511C356.031 8.37868 357.964 6.47349 360.279 6.49583C362.594 6.51817 364.414 8.45956 364.345 10.832Z" fill="url(#paint22_linear_568_3649)"/>
<path d="M379.436 10.9777C379.366 13.3502 377.433 15.2554 375.118 15.2331C372.803 15.2107 370.982 13.2693 371.052 10.8968C371.121 8.52428 373.055 6.61912 375.37 6.64147C377.685 6.6638 379.505 8.60519 379.436 10.9777Z" fill="url(#paint23_linear_568_3649)"/>
<path d="M394.527 11.1233C394.457 13.4958 392.523 15.4009 390.208 15.3786C387.893 15.3563 386.073 13.4149 386.143 11.0424C386.212 8.66991 388.145 6.76474 390.461 6.78707C392.776 6.80942 394.597 8.75082 394.527 11.1233Z" fill="url(#paint24_linear_568_3649)"/>
<path d="M409.618 11.2689C409.549 13.6414 407.615 15.5466 405.299 15.5242C402.984 15.5019 401.164 13.5605 401.234 11.1881C401.304 8.81554 403.237 6.91036 405.552 6.93269C407.867 6.95504 409.688 8.89648 409.618 11.2689Z" fill="url(#paint25_linear_568_3649)"/>
<path d="M424.708 11.4146C424.639 13.7871 422.706 15.6922 420.391 15.6699C418.076 15.6475 416.256 13.7062 416.325 11.3337C416.395 8.96112 418.328 7.05596 420.643 7.07831C422.958 7.10064 424.779 9.04202 424.708 11.4146Z" fill="url(#paint26_linear_568_3649)"/>
<path d="M439.8 11.5601C439.73 13.9327 437.797 15.8378 435.482 15.8155C433.167 15.7932 431.346 13.8518 431.417 11.4792C431.486 9.10676 433.419 7.2016 435.734 7.22394C438.049 7.24628 439.869 9.18766 439.8 11.5601Z" fill="url(#paint27_linear_568_3649)"/>
<path d="M454.891 11.7058C454.821 14.0783 452.888 15.9835 450.573 15.9611C448.258 15.9388 446.437 13.9974 446.507 11.6249C446.576 9.25239 448.51 7.34722 450.825 7.36956C453.141 7.3919 454.96 9.33329 454.891 11.7058Z" fill="url(#paint28_linear_568_3649)"/>
<path d="M469.982 11.8514C469.913 14.2239 467.98 16.1291 465.664 16.1068C463.349 16.0844 461.528 14.143 461.598 11.7705C461.668 9.39803 463.602 7.49283 465.917 7.51518C468.232 7.53751 470.052 9.47893 469.982 11.8514Z" fill="url(#paint29_linear_568_3649)"/>
<path d="M485.073 11.997C485.004 14.3695 483.07 16.2747 480.755 16.2523C478.44 16.23 476.62 14.2886 476.689 11.9161C476.759 9.54366 478.692 7.63847 481.007 7.66082C483.322 7.68316 485.143 9.62456 485.073 11.997Z" fill="url(#paint30_linear_568_3649)"/>
<path d="M349.106 12.6035C348.925 18.772 343.898 23.7254 337.879 23.6674C331.859 23.6093 327.127 18.5616 327.308 12.3931C327.489 6.22464 332.516 1.2712 338.535 1.32929C344.554 1.38737 349.287 6.435 349.106 12.6035Z" fill="url(#paint31_linear_568_3649)"/>
<path d="M199.872 11.1643C199.802 13.5367 197.868 15.4419 195.553 15.4195C193.238 15.3972 191.418 13.4558 191.487 11.0834C191.557 8.71085 193.491 6.80568 195.806 6.82802C198.121 6.85036 199.941 8.79175 199.872 11.1643Z" fill="url(#paint32_linear_568_3649)"/>
<path d="M214.963 11.3099C214.893 13.6824 212.959 15.5875 210.644 15.5652C208.329 15.5428 206.509 13.6015 206.579 11.229C206.648 8.85646 208.581 6.95132 210.896 6.97367C213.212 6.996 215.032 8.93733 214.963 11.3099Z" fill="url(#paint33_linear_568_3649)"/>
<path d="M230.054 11.4555C229.984 13.828 228.051 15.7332 225.735 15.7108C223.42 15.6885 221.6 13.7471 221.67 11.3746C221.739 9.00207 223.673 7.09692 225.988 7.11926C228.303 7.1416 230.124 9.08297 230.054 11.4555Z" fill="url(#paint34_linear_568_3649)"/>
<path d="M245.144 11.6011C245.075 13.9736 243.142 15.8788 240.827 15.8565C238.511 15.8341 236.691 13.8927 236.761 11.5202C236.831 9.14771 238.764 7.24254 241.079 7.26487C243.394 7.28722 245.215 9.2286 245.144 11.6011Z" fill="url(#paint35_linear_568_3649)"/>
<path d="M260.236 11.7467C260.166 14.1192 258.233 16.0244 255.918 16.0021C253.603 15.9798 251.782 14.0384 251.851 11.6658C251.922 9.29334 253.855 7.38817 256.17 7.41052C258.485 7.43285 260.305 9.37424 260.236 11.7467Z" fill="url(#paint36_linear_568_3649)"/>
<path d="M275.327 11.8923C275.257 14.2648 273.324 16.1701 271.009 16.1477C268.694 16.1254 266.873 14.1839 266.943 11.8114C267.012 9.43898 268.946 7.53378 271.261 7.55612C273.576 7.57846 275.396 9.51987 275.327 11.8923Z" fill="url(#paint37_linear_568_3649)"/>
<path d="M290.418 12.038C290.348 14.4105 288.414 16.3157 286.099 16.2933C283.784 16.2709 281.964 14.3296 282.034 11.9571C282.103 9.58461 284.037 7.6794 286.353 7.70174C288.668 7.72408 290.488 9.66551 290.418 12.038Z" fill="url(#paint38_linear_568_3649)"/>
<path d="M305.509 12.1836C305.44 14.5561 303.506 16.4612 301.191 16.4389C298.875 16.4166 297.056 14.4752 297.125 12.1027C297.195 9.73015 299.128 7.82504 301.443 7.84738C303.758 7.86972 305.579 9.81114 305.509 12.1836Z" fill="url(#paint39_linear_568_3649)"/>
<path d="M320.6 12.3293C320.53 14.7017 318.597 16.6069 316.282 16.5845C313.967 16.5622 312.147 14.6208 312.216 12.2483C312.286 9.87579 314.219 7.97065 316.534 7.99299C318.849 8.01533 320.67 9.95669 320.6 12.3293Z" fill="url(#paint40_linear_568_3649)"/>
<path d="M1006.99 11.2747C1006.82 17.4432 1001.79 22.3967 995.771 22.3386C989.752 22.2805 985.021 17.2328 985.197 11.0644C985.383 4.89589 990.41 -0.0575786 996.43 0.000505642C1002.45 0.0585899 1007.18 5.10623 1006.99 11.2747Z" fill="url(#paint41_linear_568_3649)"/>
<path d="M857.764 9.83548C857.695 12.2079 855.762 14.1132 853.446 14.0909C851.131 14.0684 849.311 12.1271 849.38 9.75458C849.45 7.3821 851.384 5.47691 853.699 5.49926C856.014 5.52159 857.834 7.46301 857.764 9.83548Z" fill="url(#paint42_linear_568_3649)"/>
<path d="M872.855 9.98111C872.786 12.3536 870.852 14.2588 868.537 14.2364C866.222 14.2141 864.402 12.2727 864.471 9.90021C864.541 7.52772 866.474 5.62255 868.789 5.64489C871.104 5.66723 872.925 7.60861 872.855 9.98111Z" fill="url(#paint43_linear_568_3649)"/>
<path d="M887.947 10.1267C887.876 12.4992 885.943 14.4044 883.628 14.382C881.313 14.3597 879.493 12.4183 879.563 10.0458C879.632 7.67335 881.565 5.76816 883.88 5.7905C886.195 5.81284 888.016 7.75424 887.947 10.1267Z" fill="url(#paint44_linear_568_3649)"/>
<path d="M903.037 10.2724C902.967 12.6449 901.034 14.55 898.719 14.5277C896.404 14.5053 894.583 12.564 894.654 10.1915C894.723 7.81895 896.656 5.91378 898.971 5.93612C901.287 5.95846 903.107 7.89985 903.037 10.2724Z" fill="url(#paint45_linear_568_3649)"/>
<path d="M918.128 10.418C918.059 12.7905 916.126 14.6956 913.81 14.6733C911.495 14.651 909.674 12.7096 909.744 10.3371C909.815 7.96458 911.748 6.05942 914.063 6.08176C916.378 6.1041 918.198 8.04548 918.128 10.418Z" fill="url(#paint46_linear_568_3649)"/>
<path d="M933.218 10.5636C933.153 12.9361 931.214 14.8413 928.904 14.8189C926.586 14.7966 924.766 12.8552 924.835 10.4827C924.905 8.11021 926.839 6.20502 929.155 6.22736C931.464 6.2497 933.292 8.19111 933.218 10.5636Z" fill="url(#paint47_linear_568_3649)"/>
<path d="M948.309 10.7092C948.244 13.0817 946.305 14.9869 943.996 14.9646C941.677 14.9422 939.859 13.0008 939.924 10.6283C939.998 8.25583 941.927 6.35065 944.246 6.37299C946.556 6.39533 948.383 8.33672 948.309 10.7092Z" fill="url(#paint48_linear_568_3649)"/>
<path d="M963.4 10.8548C963.335 13.2273 961.396 15.1325 959.087 15.1101C956.768 15.0878 954.95 13.1464 955.015 10.7739C955.089 8.40144 957.018 6.49628 959.337 6.51862C961.647 6.54096 963.474 8.48235 963.4 10.8548Z" fill="url(#paint49_linear_568_3649)"/>
<path d="M978.491 11.0005C978.426 13.3729 976.488 15.2781 974.178 15.2558C971.859 15.2334 970.041 13.292 970.106 10.9196C970.18 8.54707 972.11 6.64188 974.428 6.66423C976.738 6.68656 978.565 8.62797 978.491 11.0005Z" fill="url(#paint50_linear_568_3649)"/>
<path d="M678.053 11.9391C677.871 18.1076 672.844 23.061 666.825 23.0029C660.806 22.9448 656.072 17.8973 656.254 11.7287C656.435 5.56027 661.461 0.606804 667.481 0.664889C673.5 0.722977 678.233 5.77061 678.053 11.9391Z" fill="url(#paint51_linear_568_3649)"/>
<path d="M528.817 10.4999C528.748 12.8724 526.815 14.7775 524.5 14.7552C522.185 14.7329 520.365 12.7915 520.434 10.4189C520.504 8.04647 522.437 6.1413 524.752 6.16365C527.067 6.18598 528.888 8.12739 528.817 10.4999Z" fill="url(#paint52_linear_568_3649)"/>
<path d="M543.909 10.6455C543.839 13.018 541.906 14.9232 539.591 14.9008C537.276 14.8785 535.455 12.9371 535.525 10.5646C535.595 8.19211 537.528 6.28693 539.843 6.30926C542.158 6.33161 543.978 8.27301 543.909 10.6455Z" fill="url(#paint53_linear_568_3649)"/>
<path d="M559 10.7911C558.93 13.1637 556.997 15.0688 554.682 15.0465C552.367 15.0241 550.546 13.0827 550.616 10.7102C550.685 8.33772 552.619 6.43256 554.934 6.45489C557.25 6.47724 559.069 8.41863 559 10.7911Z" fill="url(#paint54_linear_568_3649)"/>
<path d="M574.091 10.9367C574.021 13.3092 572.088 15.2144 569.772 15.1921C567.457 15.1697 565.637 13.2283 565.707 10.8558C565.777 8.48335 567.71 6.57817 570.026 6.60052C572.341 6.62285 574.161 8.56426 574.091 10.9367Z" fill="url(#paint55_linear_568_3649)"/>
<path d="M589.182 11.0824C589.113 13.4548 587.179 15.3601 584.864 15.3377C582.548 15.3153 580.729 13.3739 580.798 11.0015C580.868 8.62897 582.801 6.72378 585.116 6.74612C587.431 6.76846 589.252 8.70987 589.182 11.0824Z" fill="url(#paint56_linear_568_3649)"/>
<path d="M604.274 11.228C604.203 13.6005 602.27 15.5056 599.955 15.4833C597.64 15.461 595.82 13.5196 595.889 11.1471C595.959 8.77458 597.892 6.86942 600.207 6.89175C602.522 6.9141 604.343 8.85547 604.274 11.228Z" fill="url(#paint57_linear_568_3649)"/>
<path d="M619.364 11.3736C619.294 13.7461 617.361 15.6513 615.046 15.6289C612.731 15.6066 610.91 13.6652 610.981 11.2926C611.05 8.92017 612.983 7.01502 615.298 7.03737C617.614 7.0597 619.434 9.00107 619.364 11.3736Z" fill="url(#paint58_linear_568_3649)"/>
<path d="M634.455 11.5193C634.385 13.8917 632.452 15.7969 630.137 15.7746C627.822 15.7522 626.001 13.8108 626.071 11.4384C626.141 9.06581 628.074 7.16065 630.39 7.18298C632.705 7.20533 634.525 9.14671 634.455 11.5193Z" fill="url(#paint59_linear_568_3649)"/>
<path d="M649.546 11.6648C649.477 14.0373 647.544 15.9425 645.229 15.9202C642.913 15.8979 641.093 13.9564 641.162 11.5839C641.232 9.21144 643.166 7.30627 645.481 7.32862C647.796 7.35095 649.616 9.29234 649.546 11.6648Z" fill="url(#paint60_linear_568_3649)"/>
<defs>
<linearGradient id="paint0_linear_568_3649" x1="60968.9" y1="13.4503" x2="21377.6" y2="-29652.5" gradientUnits="userSpaceOnUse">
<stop stop-color="#00D6FF"/>
<stop offset="1" stop-color="#63B4C4"/>
</linearGradient>
<linearGradient id="paint1_linear_568_3649" x1="53463" y1="12.4091" x2="13863.6" y2="-29659.7" gradientUnits="userSpaceOnUse">
<stop stop-color="#00D6FF"/>
<stop offset="1" stop-color="#63B4C4"/>
</linearGradient>
<linearGradient id="paint2_linear_568_3649" x1="155310" y1="16.9029" x2="52351.3" y2="-77131" gradientUnits="userSpaceOnUse">
<stop stop-color="#00D6FF"/>
<stop offset="1" stop-color="#63B4C4"/>
</linearGradient>
<linearGradient id="paint3_linear_568_3649" x1="153498" y1="16.4962" x2="50539.7" y2="-77131.5" gradientUnits="userSpaceOnUse">
<stop stop-color="#00D6FF"/>
<stop offset="1" stop-color="#63B4C4"/>
</linearGradient>
<linearGradient id="paint4_linear_568_3649" x1="151686" y1="16.0894" x2="48728.4" y2="-77132" gradientUnits="userSpaceOnUse">
<stop stop-color="#00D6FF"/>
<stop offset="1" stop-color="#63B4C4"/>
</linearGradient>
<linearGradient id="paint5_linear_568_3649" x1="149876" y1="15.6827" x2="46917" y2="-77133.1" gradientUnits="userSpaceOnUse">
<stop stop-color="#00D6FF"/>
<stop offset="1" stop-color="#63B4C4"/>
</linearGradient>
<linearGradient id="paint6_linear_568_3649" x1="148063" y1="15.2759" x2="45104.2" y2="-77132.6" gradientUnits="userSpaceOnUse">
<stop stop-color="#00D6FF"/>
<stop offset="1" stop-color="#63B4C4"/>
</linearGradient>
<linearGradient id="paint7_linear_568_3649" x1="146248" y1="14.8692" x2="43290.1" y2="-77131" gradientUnits="userSpaceOnUse">
<stop stop-color="#00D6FF"/>
<stop offset="1" stop-color="#63B4C4"/>
</linearGradient>
<linearGradient id="paint8_linear_568_3649" x1="144436" y1="14.4623" x2="41478.4" y2="-77131.4" gradientUnits="userSpaceOnUse">
<stop stop-color="#00D6FF"/>
<stop offset="1" stop-color="#63B4C4"/>
</linearGradient>
<linearGradient id="paint9_linear_568_3649" x1="142639" y1="14.0556" x2="39678.8" y2="-77142.2" gradientUnits="userSpaceOnUse">
<stop stop-color="#00D6FF"/>
<stop offset="1" stop-color="#63B4C4"/>
</linearGradient>
<linearGradient id="paint10_linear_568_3649" x1="140813" y1="13.6488" x2="37855.2" y2="-77132.3" gradientUnits="userSpaceOnUse">
<stop stop-color="#00D6FF"/>
<stop offset="1" stop-color="#63B4C4"/>
</linearGradient>
<linearGradient id="paint11_linear_568_3649" x1="23084.8" y1="13.8366" x2="-16514.6" y2="-29658.3" gradientUnits="userSpaceOnUse">
<stop stop-color="#00D6FF"/>
<stop offset="1" stop-color="#63B4C4"/>
</linearGradient>
<linearGradient id="paint12_linear_568_3649" x1="76324.6" y1="20.6146" x2="-26633.3" y2="-77125.2" gradientUnits="userSpaceOnUse">
<stop stop-color="#00D6FF"/>
<stop offset="1" stop-color="#63B4C4"/>
</linearGradient>
<linearGradient id="paint13_linear_568_3649" x1="74512.9" y1="20.2079" x2="-28445.1" y2="-77125.6" gradientUnits="userSpaceOnUse">
<stop stop-color="#00D6FF"/>
<stop offset="1" stop-color="#63B4C4"/>
</linearGradient>
<linearGradient id="paint14_linear_568_3649" x1="72701.3" y1="19.801" x2="-30256.4" y2="-77126.1" gradientUnits="userSpaceOnUse">
<stop stop-color="#00D6FF"/>
<stop offset="1" stop-color="#63B4C4"/>
</linearGradient>
<linearGradient id="paint15_linear_568_3649" x1="70889.5" y1="19.3943" x2="-32068.1" y2="-77126.5" gradientUnits="userSpaceOnUse">
<stop stop-color="#00D6FF"/>
<stop offset="1" stop-color="#63B4C4"/>
</linearGradient>
<linearGradient id="paint16_linear_568_3649" x1="69077.8" y1="18.9875" x2="-33879.6" y2="-77127" gradientUnits="userSpaceOnUse">
<stop stop-color="#00D6FF"/>
<stop offset="1" stop-color="#63B4C4"/>
</linearGradient>
<linearGradient id="paint17_linear_568_3649" x1="67266" y1="18.5808" x2="-35692.1" y2="-77127.2" gradientUnits="userSpaceOnUse">
<stop stop-color="#00D6FF"/>
<stop offset="1" stop-color="#63B4C4"/>
</linearGradient>
<linearGradient id="paint18_linear_568_3649" x1="65454.3" y1="18.1741" x2="-37503.6" y2="-77127.7" gradientUnits="userSpaceOnUse">
<stop stop-color="#00D6FF"/>
<stop offset="1" stop-color="#63B4C4"/>
</linearGradient>
<linearGradient id="paint19_linear_568_3649" x1="63649.2" y1="17.7673" x2="-39311.7" y2="-77138.4" gradientUnits="userSpaceOnUse">
<stop stop-color="#00D6FF"/>
<stop offset="1" stop-color="#63B4C4"/>
</linearGradient>
<linearGradient id="paint20_linear_568_3649" x1="61837.3" y1="17.3604" x2="-41123.6" y2="-77138.8" gradientUnits="userSpaceOnUse">
<stop stop-color="#00D6FF"/>
<stop offset="1" stop-color="#63B4C4"/>
</linearGradient>
<linearGradient id="paint21_linear_568_3649" x1="38273.8" y1="13.1228" x2="-1325.48" y2="-29658.9" gradientUnits="userSpaceOnUse">
<stop stop-color="#00D6FF"/>
<stop offset="1" stop-color="#63B4C4"/>
</linearGradient>
<linearGradient id="paint22_linear_568_3649" x1="115816" y1="18.7587" x2="12858.2" y2="-77127.2" gradientUnits="userSpaceOnUse">
<stop stop-color="#00D6FF"/>
<stop offset="1" stop-color="#63B4C4"/>
</linearGradient>
<linearGradient id="paint23_linear_568_3649" x1="114004" y1="18.3519" x2="11046.4" y2="-77127.6" gradientUnits="userSpaceOnUse">
<stop stop-color="#00D6FF"/>
<stop offset="1" stop-color="#63B4C4"/>
</linearGradient>
<linearGradient id="paint24_linear_568_3649" x1="112192" y1="17.9453" x2="9234.14" y2="-77127.9" gradientUnits="userSpaceOnUse">
<stop stop-color="#00D6FF"/>
<stop offset="1" stop-color="#63B4C4"/>
</linearGradient>
<linearGradient id="paint25_linear_568_3649" x1="110380" y1="17.5385" x2="7422.54" y2="-77128.3" gradientUnits="userSpaceOnUse">
<stop stop-color="#00D6FF"/>
<stop offset="1" stop-color="#63B4C4"/>
</linearGradient>
<linearGradient id="paint26_linear_568_3649" x1="108580" y1="17.1318" x2="5619.28" y2="-77139.1" gradientUnits="userSpaceOnUse">
<stop stop-color="#00D6FF"/>
<stop offset="1" stop-color="#63B4C4"/>
</linearGradient>
<linearGradient id="paint27_linear_568_3649" x1="106768" y1="16.7249" x2="3807.35" y2="-77139.5" gradientUnits="userSpaceOnUse">
<stop stop-color="#00D6FF"/>
<stop offset="1" stop-color="#63B4C4"/>
</linearGradient>
<linearGradient id="paint28_linear_568_3649" x1="104945" y1="16.3181" x2="1987.74" y2="-77129.6" gradientUnits="userSpaceOnUse">
<stop stop-color="#00D6FF"/>
<stop offset="1" stop-color="#63B4C4"/>
</linearGradient>
<linearGradient id="paint29_linear_568_3649" x1="103134" y1="15.9113" x2="176.15" y2="-77130.1" gradientUnits="userSpaceOnUse">
<stop stop-color="#00D6FF"/>
<stop offset="1" stop-color="#63B4C4"/>
</linearGradient>
<linearGradient id="paint30_linear_568_3649" x1="101322" y1="15.5046" x2="-1636.44" y2="-77130.2" gradientUnits="userSpaceOnUse">
<stop stop-color="#00D6FF"/>
<stop offset="1" stop-color="#63B4C4"/>
</linearGradient>
<linearGradient id="paint31_linear_568_3649" x1="45868.4" y1="12.7659" x2="6269.13" y2="-29659.4" gradientUnits="userSpaceOnUse">
<stop stop-color="#00D6FF"/>
<stop offset="1" stop-color="#63B4C4"/>
</linearGradient>
<linearGradient id="paint32_linear_568_3649" x1="135561" y1="17.8309" x2="32603.1" y2="-77128" gradientUnits="userSpaceOnUse">
<stop stop-color="#00D6FF"/>
<stop offset="1" stop-color="#63B4C4"/>
</linearGradient>
<linearGradient id="paint33_linear_568_3649" x1="133749" y1="17.4242" x2="30791.2" y2="-77128.4" gradientUnits="userSpaceOnUse">
<stop stop-color="#00D6FF"/>
<stop offset="1" stop-color="#63B4C4"/>
</linearGradient>
<linearGradient id="paint34_linear_568_3649" x1="131938" y1="17.0173" x2="28979.8" y2="-77128.9" gradientUnits="userSpaceOnUse">
<stop stop-color="#00D6FF"/>
<stop offset="1" stop-color="#63B4C4"/>
</linearGradient>
<linearGradient id="paint35_linear_568_3649" x1="130139" y1="16.6106" x2="27178.3" y2="-77139.1" gradientUnits="userSpaceOnUse">
<stop stop-color="#00D6FF"/>
<stop offset="1" stop-color="#63B4C4"/>
</linearGradient>
<linearGradient id="paint36_linear_568_3649" x1="128314" y1="16.2038" x2="25356.6" y2="-77129.7" gradientUnits="userSpaceOnUse">
<stop stop-color="#00D6FF"/>
<stop offset="1" stop-color="#63B4C4"/>
</linearGradient>
<linearGradient id="paint37_linear_568_3649" x1="126502" y1="15.797" x2="23545.1" y2="-77130.2" gradientUnits="userSpaceOnUse">
<stop stop-color="#00D6FF"/>
<stop offset="1" stop-color="#63B4C4"/>
</linearGradient>
<linearGradient id="paint38_linear_568_3649" x1="124691" y1="15.3904" x2="21732.7" y2="-77130.4" gradientUnits="userSpaceOnUse">
<stop stop-color="#00D6FF"/>
<stop offset="1" stop-color="#63B4C4"/>
</linearGradient>
<linearGradient id="paint39_linear_568_3649" x1="122879" y1="14.9835" x2="19921" y2="-77130.8" gradientUnits="userSpaceOnUse">
<stop stop-color="#00D6FF"/>
<stop offset="1" stop-color="#63B4C4"/>
</linearGradient>
<linearGradient id="paint40_linear_568_3649" x1="121067" y1="14.5768" x2="18109.4" y2="-77131.3" gradientUnits="userSpaceOnUse">
<stop stop-color="#00D6FF"/>
<stop offset="1" stop-color="#63B4C4"/>
</linearGradient>
<linearGradient id="paint41_linear_568_3649" x1="15491" y1="14.1935" x2="-24108.7" y2="-29659.6" gradientUnits="userSpaceOnUse">
<stop stop-color="#00D6FF"/>
<stop offset="1" stop-color="#63B4C4"/>
</linearGradient>
<linearGradient id="paint42_linear_568_3649" x1="56579.2" y1="21.5425" x2="-46378.2" y2="-77124.4" gradientUnits="userSpaceOnUse">
<stop stop-color="#00D6FF"/>
<stop offset="1" stop-color="#63B4C4"/>
</linearGradient>
<linearGradient id="paint43_linear_568_3649" x1="54767.5" y1="21.1358" x2="-48190.7" y2="-77124.6" gradientUnits="userSpaceOnUse">
<stop stop-color="#00D6FF"/>
<stop offset="1" stop-color="#63B4C4"/>
</linearGradient>
<linearGradient id="paint44_linear_568_3649" x1="52955.7" y1="20.7289" x2="-50002.2" y2="-77125.1" gradientUnits="userSpaceOnUse">
<stop stop-color="#00D6FF"/>
<stop offset="1" stop-color="#63B4C4"/>
</linearGradient>
<linearGradient id="paint45_linear_568_3649" x1="51149" y1="20.3222" x2="-51811.7" y2="-77135.3" gradientUnits="userSpaceOnUse">
<stop stop-color="#00D6FF"/>
<stop offset="1" stop-color="#63B4C4"/>
</linearGradient>
<linearGradient id="paint46_linear_568_3649" x1="49332.3" y1="19.9155" x2="-53625.5" y2="-77125.9" gradientUnits="userSpaceOnUse">
<stop stop-color="#00D6FF"/>
<stop offset="1" stop-color="#63B4C4"/>
</linearGradient>
<linearGradient id="paint47_linear_568_3649" x1="47529.7" y1="19.5087" x2="-55433.4" y2="-77145.3" gradientUnits="userSpaceOnUse">
<stop stop-color="#00D6FF"/>
<stop offset="1" stop-color="#63B4C4"/>
</linearGradient>
<linearGradient id="paint48_linear_568_3649" x1="45704" y1="19.1018" x2="-57250.3" y2="-77115.8" gradientUnits="userSpaceOnUse">
<stop stop-color="#00D6FF"/>
<stop offset="1" stop-color="#63B4C4"/>
</linearGradient>
<linearGradient id="paint49_linear_568_3649" x1="43892.5" y1="18.6953" x2="-59062.5" y2="-77116" gradientUnits="userSpaceOnUse">
<stop stop-color="#00D6FF"/>
<stop offset="1" stop-color="#63B4C4"/>
</linearGradient>
<linearGradient id="paint50_linear_568_3649" x1="42081" y1="18.2885" x2="-60873.8" y2="-77116.5" gradientUnits="userSpaceOnUse">
<stop stop-color="#00D6FF"/>
<stop offset="1" stop-color="#63B4C4"/>
</linearGradient>
<linearGradient id="paint51_linear_568_3649" x1="30679.3" y1="13.4797" x2="-8920.07" y2="-29658.6" gradientUnits="userSpaceOnUse">
<stop stop-color="#00D6FF"/>
<stop offset="1" stop-color="#63B4C4"/>
</linearGradient>
<linearGradient id="paint52_linear_568_3649" x1="96080.1" y1="19.6867" x2="-6880.69" y2="-77136.5" gradientUnits="userSpaceOnUse">
<stop stop-color="#00D6FF"/>
<stop offset="1" stop-color="#63B4C4"/>
</linearGradient>
<linearGradient id="paint53_linear_568_3649" x1="94258.5" y1="19.2798" x2="-8699.18" y2="-77126.6" gradientUnits="userSpaceOnUse">
<stop stop-color="#00D6FF"/>
<stop offset="1" stop-color="#63B4C4"/>
</linearGradient>
<linearGradient id="paint54_linear_568_3649" x1="92446.7" y1="18.8731" x2="-10510.8" y2="-77127.1" gradientUnits="userSpaceOnUse">
<stop stop-color="#00D6FF"/>
<stop offset="1" stop-color="#63B4C4"/>
</linearGradient>
<linearGradient id="paint55_linear_568_3649" x1="90635" y1="18.4663" x2="-12322.5" y2="-77127.5" gradientUnits="userSpaceOnUse">
<stop stop-color="#00D6FF"/>
<stop offset="1" stop-color="#63B4C4"/>
</linearGradient>
<linearGradient id="paint56_linear_568_3649" x1="88823.2" y1="18.0597" x2="-14134.8" y2="-77127.8" gradientUnits="userSpaceOnUse">
<stop stop-color="#00D6FF"/>
<stop offset="1" stop-color="#63B4C4"/>
</linearGradient>
<linearGradient id="paint57_linear_568_3649" x1="87011.5" y1="17.6529" x2="-15946.5" y2="-77128.2" gradientUnits="userSpaceOnUse">
<stop stop-color="#00D6FF"/>
<stop offset="1" stop-color="#63B4C4"/>
</linearGradient>
<linearGradient id="paint58_linear_568_3649" x1="85208.1" y1="17.2461" x2="-17752.5" y2="-77138.4" gradientUnits="userSpaceOnUse">
<stop stop-color="#00D6FF"/>
<stop offset="1" stop-color="#63B4C4"/>
</linearGradient>
<linearGradient id="paint59_linear_568_3649" x1="83388.1" y1="16.8393" x2="-19569.5" y2="-77129.1" gradientUnits="userSpaceOnUse">
<stop stop-color="#00D6FF"/>
<stop offset="1" stop-color="#63B4C4"/>
</linearGradient>
<linearGradient id="paint60_linear_568_3649" x1="1320.66" y1="13.2113" x2="-18.0301" y2="-10.1277" gradientUnits="userSpaceOnUse">
<stop stop-color="#00D6FF"/>
<stop offset="1" stop-color="#63B4C4"/>
</linearGradient>
</defs>
</svg>
