<svg width="62" height="59" viewBox="0 0 62 59" fill="none" xmlns="http://www.w3.org/2000/svg">
<mask id="mask0_568_3513" style="mask-type:luminance" maskUnits="userSpaceOnUse" x="6" y="0" width="50" height="59">
<path d="M56 0H6V59H56V0Z" fill="white"/>
</mask>
<g mask="url(#mask0_568_3513)">
<path fill-rule="evenodd" clip-rule="evenodd" d="M52.9309 39.3613C49.9176 45.2036 43.9299 52.334 32.003 57.5331C20.5902 52.3369 13.6028 45.2004 10.4615 39.3539C8.8571 36.3678 7.99214 33.7089 7.52859 31.8011C7.29685 30.8474 7.16556 30.0818 7.09237 29.5577C7.05578 29.2957 7.03373 29.0941 7.02091 28.9595C7.0145 28.8923 7.0104 28.8418 7.00794 28.8089L7 6.00211L32.003 -0.0664062L55.9999 6.00211L55.9992 28.8356C55.9986 28.8682 55.9971 28.9184 55.9943 28.9854C55.9885 29.1194 55.9768 29.3204 55.9531 29.5818C55.9058 30.1046 55.8106 30.8686 55.6191 31.8206C55.2363 33.7249 54.4688 36.3796 52.9309 39.3613ZM42.4918 18.357L42.1703 18.7399L42.1702 18.74L30.638 32.4782L24.7117 26.4722L23.2881 27.877L29.9859 34.6649L30.7574 35.4468L31.4636 34.6054L43.702 20.0259L43.702 20.0258L44.0234 19.643L42.4918 18.357Z" fill="#EEB51C"/>
</g>
</svg>
