<svg width="1920" height="1235" viewBox="0 0 1920 1235" fill="none" xmlns="http://www.w3.org/2000/svg">
<path d="M1240 1185C1240 1212.61 1217.61 1235 1190 1235L22.9999 1235C-4.61438 1235 -27.0001 1212.61 -27.0001 1185L-27.0001 1176.5C-27.0001 1152.14 -9.45544 1131.33 14.5464 1127.21L1181.55 927.027C1212.09 921.787 1240 945.315 1240 976.307L1240 1185Z" fill="#FFB1FC" fill-opacity="0.1"/>
<path d="M-26.5 225C-26.5 197.386 -4.11424 175 23.5 175H498.168C543.078 175 565.218 229.611 532.987 260.884L131.048 650.884C121.718 659.937 109.229 665 96.2295 665H23.5C-4.11424 665 -26.5 642.614 -26.5 615V225Z" fill="#75FEE2" fill-opacity="0.1"/>
<rect x="146" width="1239" height="261" rx="50" fill="#3FFFAE" fill-opacity="0.1"/>
<rect x="1434" y="652" width="512" height="442" rx="50" fill="#FF9D9D" fill-opacity="0.1"/>
</svg>
