<svg width="1920" height="1305" viewBox="0 0 1920 1305" fill="none" xmlns="http://www.w3.org/2000/svg">
<path d="M1313 476.637C1313 504.251 1290.61 526.637 1263 526.637L-190 526.637C-217.614 526.636 -240 504.251 -240 476.636L-240 399.674C-240 376.409 -223.953 356.218 -201.289 350.965L1251.71 14.2048C1283.05 6.94055 1313 30.74 1313 62.9137L1313 476.637Z" fill="#FFB1FC" fill-opacity="0.1"/>
<path d="M2605 1190.41C2605 1218.03 2582.61 1240.41 2555 1240.41H688.136C639.579 1240.41 619.521 1178.18 658.939 1149.82L1148.45 797.709C1156.96 791.591 1167.17 788.299 1177.65 788.299H2555C2582.61 788.299 2605 810.685 2605 838.299V1190.41Z" fill="#79FFD7" fill-opacity="0.1"/>
<rect x="2172" y="1305" width="1633" height="157.329" rx="50" transform="rotate(180 2172 1305)" fill="#80FF00" fill-opacity="0.1"/>
</svg>
