<svg width="2161" height="4498" viewBox="0 0 2161 4498" fill="none" xmlns="http://www.w3.org/2000/svg">
<g clip-path="url(#clip0_639_6011)">
<path d="M1881 143H1753C1727.59 143 1707 163.595 1707 189C1707 214.405 1727.59 235 1753 235H1881C1906.41 235 1927 214.405 1927 189C1927 163.595 1906.41 143 1881 143Z" fill="#FFB26C" fill-opacity="0.1"/>
<path d="M184.5 3212C184.5 3184.39 206.886 3162 234.5 3162H709.168C754.078 3162 776.218 3216.61 743.987 3247.88L342.048 3637.88C332.718 3646.94 320.229 3652 307.229 3652H234.5C206.886 3652 184.5 3629.61 184.5 3602V3212Z" fill="#3FFF8C" fill-opacity="0.1"/>
<path d="M1774 158C1774 130.386 1796.39 108 1824 108H2068C2095.61 108 2118 130.386 2118 158V577.312C2118 615.821 2076.3 639.875 2042.96 620.592L1798.96 479.441C1783.51 470.504 1774 454.009 1774 436.161V158Z" fill="#C4B0FF" fill-opacity="0.1"/>
<path d="M1451 1603C1451 1630.61 1428.61 1653 1401 1653H234C206.386 1653 184 1630.61 184 1603V1594.5C184 1570.14 201.545 1549.33 225.546 1545.21L1392.55 1345.03C1423.09 1339.79 1451 1363.31 1451 1394.31V1603Z" fill="#FFB1FC" fill-opacity="0.1"/>
<path d="M666.085 145.291C660.085 147.74 653.667 149 647.188 149H263C235.386 149 213 126.614 213 99.0001V50.0001C213 22.3858 235.386 4.6953e-05 263 4.9367e-05L920.088 0C942.031 1.918e-06 947.962 30.2238 927.647 38.5166L666.085 145.291Z" fill="#FFB1DB" fill-opacity="0.1"/>
<path d="M102 207L564 207C591.614 207 614 184.614 614 157V106C614 78.3858 591.614 56 564 56L102 56C74.3857 56 52 78.3858 52 106V157C52 184.614 74.3857 207 102 207Z" fill="#FFD2A9" fill-opacity="0.1"/>
<path d="M2107 1070H1695C1667.39 1070 1645 1092.39 1645 1120V1462C1645 1489.61 1667.39 1512 1695 1512H2107C2134.61 1512 2157 1489.61 2157 1462V1120C2157 1092.39 2134.61 1070 2107 1070Z" fill="#FF9D9D" fill-opacity="0.1"/>
<path d="M930 3934C930 3906.39 952.386 3884 980 3884H2107C2134.61 3884 2157 3906.39 2157 3934V4252.83C2157 4283.09 2130.33 4306.41 2100.34 4302.38L973.336 4150.83C948.521 4147.49 930 4126.31 930 4101.27V3934Z" fill="#FFAEE8" fill-opacity="0.08"/>
<path d="M1451 4448C1451 4475.61 1428.61 4498 1401 4498H177C149.386 4498 127 4475.61 127 4448V4331.7C127 4303.05 151.02 4280.26 179.627 4281.77L1403.63 4346.17C1430.18 4347.56 1451 4369.5 1451 4396.1V4448Z" fill="#84FF90" fill-opacity="0.1"/>
<path d="M463.629 1833.41C458.77 1800.91 486.056 1772.64 518.713 1776.34L2116.63 1957.55C2141.91 1960.42 2161 1981.8 2161 2007.23V2894C2161 2921.61 2138.61 2944 2111 2944H672.725C647.965 2944 626.935 2925.88 623.274 2901.39L463.629 1833.41Z" fill="#68DBFF" fill-opacity="0.1"/>
<path d="M0 768C0 740.386 22.3858 718 50 718H1831.38C1885.62 718 1901.05 792.253 1851.3 813.861L1453 986.861C1446.71 989.591 1439.93 991 1433.08 991H49.9999C22.3857 991 0 968.614 0 941V768Z" fill="#79FFD7" fill-opacity="0.1"/>
<path d="M1546 2987H407C379.386 2987 357 3009.39 357 3037V3198C357 3225.61 379.386 3248 407 3248H1546C1573.61 3248 1596 3225.61 1596 3198V3037C1596 3009.39 1573.61 2987 1546 2987Z" fill="#BDFF9E" fill-opacity="0.1"/>
<path d="M2018.5 679H480.5C454.266 679 433 700.266 433 726.5C433 752.734 454.266 774 480.5 774H2018.5C2044.73 774 2066 752.734 2066 726.5C2066 700.266 2044.73 679 2018.5 679Z" fill="#80FF00" fill-opacity="0.1"/>
</g>
<defs>
<clipPath id="clip0_639_6011">
<rect width="2161" height="4498" fill="white"/>
</clipPath>
</defs>
</svg>
