<svg width="62" height="59" viewBox="0 0 62 59" fill="none" xmlns="http://www.w3.org/2000/svg">
<path d="M31 31.3428C27.9838 31.3428 25.0354 30.4777 22.5276 28.857C20.0197 27.2362 18.0651 24.9326 16.9108 22.2374C15.7566 19.5422 15.4546 16.5764 16.043 13.7152C16.6315 10.854 18.0839 8.22578 20.2166 6.16295C22.3494 4.10013 25.0667 2.69533 28.0249 2.1262C30.9831 1.55707 34.0494 1.84916 36.8359 2.96556C39.6225 4.08195 42.0042 5.97249 43.6799 8.39812C45.3556 10.8237 46.25 13.6755 46.25 16.5928C46.246 20.5035 44.638 24.253 41.7789 27.0183C38.9199 29.7836 35.0433 31.3389 31 31.3428Z" fill="#4BA1DA"/>
<path d="M53.8749 56.9261C53.8749 55.6221 54.8282 57.8482 53.8749 56.9261C52.9216 56.0041 55.2231 56.9261 53.8749 56.9261H8.12494C6.77676 56.9261 9.07825 56.0041 8.12494 56.9261C7.17163 57.8482 8.12494 55.6221 8.12494 56.9261L8.12487 44.6344C8.1289 41.3757 9.46911 38.2515 11.8515 35.9472C14.2339 33.6429 17.464 32.3467 20.8332 32.3428H41.1665C44.5358 32.3467 47.7658 33.6429 50.1482 35.9472C52.5306 38.2515 53.8708 41.3757 53.8749 44.6344V56.9261Z" fill="#4BA1DA"/>
</svg>
