<svg width="62" height="59" viewBox="0 0 62 59" fill="none" xmlns="http://www.w3.org/2000/svg">
<path d="M26.0002 3V15.5H4.50022V3H26.0002Z" fill="#D962B8"/>
<path d="M4.50022 29V17.5H26.0002V29H4.50022Z" fill="#D962B8"/>
<path fill-rule="evenodd" clip-rule="evenodd" d="M26 31L26.0002 45.25C26.0002 51.1861 21.1863 56 15.2502 56C9.31411 56 4.50022 51.1861 4.50022 45.25L4.5 31H26ZM15.2502 41.375C17.3894 41.375 19.1252 43.1109 19.1252 45.25C19.1252 47.3891 17.3894 49.125 15.2502 49.125C13.1111 49.125 11.3752 47.3891 11.3752 45.25C11.3752 43.1109 13.1111 41.375 15.2502 41.375Z" fill="#D962B8"/>
<path d="M37.4582 7.70761L52.7268 22.9761L28 47.5487V13.8614L37.4582 7.70761Z" fill="#D962B8"/>
<path d="M57.5002 34.5V56H22.2072L43.7093 34.5H57.5002Z" fill="#D962B8"/>
</svg>
