<svg width="64" height="59" viewBox="0 0 64 59" fill="none" xmlns="http://www.w3.org/2000/svg">
<path fill-rule="evenodd" clip-rule="evenodd" d="M36.6268 18.6213C36.8026 19.5709 36.8912 20.5345 36.8917 21.5L32.5 24L26.1644 20.3316C26.1644 20.3316 25.7391 18.7723 24.7457 17.7877C23.7523 16.8031 22.4049 16.25 21 16.25C19.9523 16.25 18.9281 16.5579 18.057 17.1348C17.1859 17.7117 16.5069 18.5316 16.106 19.4909C15.7051 20.4502 15.6002 21.5058 15.8046 22.5242C16.0089 23.5426 16.5135 24.4781 17.2543 25.2123C17.9951 25.9465 18.939 26.4466 19.9666 26.6491C20.9941 26.8517 22.0592 26.7477 23.0272 26.3504L20.5 32L26.2972 35.5V39.826L22 42.5H15.7028V36.3522C13.8617 35.7071 12.1563 34.7313 10.6722 33.4735L5.29723 36.55L0 27.45L5.37316 24.3787C5.02021 22.4755 5.02021 20.5245 5.37316 18.6213L0 15.55L5.29723 6.45L10.6722 9.52825C12.1562 8.26987 13.8615 7.29339 15.7028 6.64775V0.5H26.2972V6.64775C28.1385 7.29339 29.8438 8.26987 31.3278 9.52825L36.7028 6.45L42 15.55H36.6268V18.6213ZM58.6268 34.6213C58.8026 35.5709 58.8912 36.5345 58.8917 37.5C58.8912 38.4655 58.8026 39.4291 58.6268 40.3787L64 43.45L58.7028 52.55L53.3278 49.4717C51.8438 50.7301 50.1385 51.7066 48.2972 52.3522V58.5H37.7028V52.3522C35.8617 51.7071 34.1563 50.7313 32.6722 49.4735L27.2972 52.55L22 43.45L27.3732 40.3787C27.0202 38.4755 27.0202 36.5245 27.3732 34.6213L22 31.55L27.2972 22.45L32.6722 25.5282C34.1562 24.2699 35.8615 23.2934 37.7028 22.6478V16.5H48.2972V22.6478C50.1385 23.2934 51.8438 24.2699 53.3278 25.5282L58.7028 22.45L64 31.55L58.6268 34.6213ZM47.4045 40.4167C47.9866 39.5534 48.2972 38.5384 48.2972 37.5C48.2972 36.1076 47.7391 34.7723 46.7457 33.7877C45.7523 32.8031 44.4049 32.25 43 32.25C41.9523 32.25 40.9281 32.5579 40.057 33.1348C39.1859 33.7117 38.5069 34.5316 38.106 35.4909C37.7051 36.4502 37.6002 37.5058 37.8046 38.5242C38.0089 39.5426 38.5135 40.4781 39.2543 41.2123C39.9951 41.9465 40.939 42.4466 41.9666 42.6491C42.9941 42.8517 44.0592 42.7477 45.0272 42.3504C45.9951 41.953 46.8224 41.2801 47.4045 40.4167Z" fill="#A46DDB"/>
</svg>
